<svg width="43.000000" height="43.000000" viewBox="0 0 43 43" fill="none" xmlns="http://www.w3.org/2000/svg" xmlns:xlink="http://www.w3.org/1999/xlink">
	<desc>
			Created with Pixso.
	</desc>
	<defs/>
	<rect id="Подложка" width="43.000000" height="43.000000" fill="#000000" fill-opacity="1.000000"/>
	<path id="Facebook" d="M19.6238 12.1312C20.5935 11.3762 21.8239 10.9747 23.0868 11.0012L27 11.0012L27 14.8612L24.4697 14.8612C24.1989 14.8502 23.9324 14.9283 23.7169 15.0819C23.5013 15.2354 23.3505 15.4546 23.2904 15.7012L23.2904 18.2812L27 18.2812C26.9142 19.5212 26.7212 20.7612 26.5604 22.0012L23.344 22.0012L23.344 33.0012L18.4016 33.0012L18.4016 22.0012L16 22.0012L16 18.3013L18.3801 18.3013L18.3801 14.7112C18.4318 13.7358 18.8759 12.8146 19.6238 12.1312Z" fill="#FFFFFF" fill-opacity="1.000000" fill-rule="nonzero"/>
</svg>
