<svg width="43.000000" height="43.000000" viewBox="0 0 43 43" fill="none" xmlns="http://www.w3.org/2000/svg" xmlns:xlink="http://www.w3.org/1999/xlink">
	<desc>
			Created with Pixso.
	</desc>
	<defs/>
	<rect id="Подложка" width="43.000000" height="43.000000" fill="#000000" fill-opacity="1.000000"/>
	<path id="Instagram" d="M30 11L14 11C13.4696 11 12.9608 11.2107 12.5858 11.5858C12.2107 11.9608 12 12.4696 12 13L12 29C12 29.5304 12.2107 30.0392 12.5858 30.4142C12.9608 30.7893 13.4696 31 14 31L30 31C30.5304 31 31.0392 30.7893 31.4142 30.4142C31.7893 30.0392 32 29.5304 32 29L32 13C32 12.4696 31.7893 11.9608 31.4142 11.5858C31.0392 11.2107 30.5304 11 30 11L30 11ZM22 17C22.7911 17 23.5645 17.2346 24.2223 17.6741C24.8801 18.1136 25.3928 18.7384 25.6956 19.4692C25.9983 20.2002 26.0775 21.0044 25.9231 21.7804C25.7688 22.5563 25.3878 23.269 24.8284 23.8284C24.269 24.3878 23.5563 24.7688 22.7804 24.9231C22.0044 25.0775 21.2002 24.9983 20.4692 24.6956C19.7384 24.3928 19.1136 23.8801 18.6741 23.2223C18.2346 22.5645 18 21.7911 18 21C18 19.9391 18.4214 18.9218 19.1716 18.1716C19.9218 17.4214 20.9391 17 22 17ZM14.5 29C14.4382 29.004 14.3763 28.9958 14.3177 28.976C14.2592 28.9561 14.2051 28.9247 14.1586 28.8839C14.1122 28.843 14.0742 28.7933 14.047 28.7378C14.0198 28.6821 14.0038 28.6217 14 28.5601L14 20L16.1 20C16.0168 20.3264 15.9832 20.6636 16 21C16 22.5913 16.6321 24.1174 17.7573 25.2427C18.8826 26.3679 20.4087 27 22 27C23.5913 27 25.1174 26.3679 26.2427 25.2427C27.3679 24.1174 28 22.5913 28 21C28.0168 20.6636 27.9832 20.3264 27.9 20L30 20L30 28.5C30.004 28.5618 29.9958 28.6237 29.976 28.6823C29.9561 28.7408 29.9247 28.7949 29.8839 28.8414C29.843 28.8878 29.7933 28.9258 29.7378 28.953C29.6821 28.9802 29.6217 28.9962 29.5601 29L14.5 29ZM30 15.5C30.004 15.5618 29.9958 15.6237 29.976 15.6823C29.9561 15.7408 29.9247 15.7949 29.8839 15.8414C29.843 15.8878 29.7933 15.9258 29.7378 15.953C29.6821 15.9802 29.6217 15.9962 29.5601 16L27.5 16C27.4382 16.004 27.3763 15.9958 27.3177 15.976C27.2592 15.9561 27.2051 15.9247 27.1586 15.8839C27.1122 15.843 27.0742 15.7933 27.047 15.7378C27.0198 15.6821 27.0038 15.6217 27 15.5601L27 13.5C26.996 13.4382 27.0042 13.3763 27.024 13.3177C27.0439 13.2592 27.0753 13.2051 27.1161 13.1586C27.157 13.1122 27.2067 13.0742 27.2622 13.047C27.3179 13.0198 27.3782 13.0038 27.4399 13L29.5 13C29.5618 12.996 29.6237 13.0042 29.6823 13.024C29.7408 13.0439 29.7949 13.0753 29.8414 13.1161C29.8878 13.157 29.9258 13.2067 29.953 13.2622C29.9802 13.3179 29.9962 13.3783 30 13.4399L30 15.5Z" fill="#FFFFFF" fill-opacity="1.000000" fill-rule="nonzero"/>
</svg>
