<svg width="14.000000" height="14.000000" viewBox="0 0 14 14" fill="none" xmlns="http://www.w3.org/2000/svg" xmlns:xlink="http://www.w3.org/1999/xlink">
	<desc>
			Created with Pixso.
	</desc>
	<defs/>
	<g opacity="0.300000">
		<path id="login" d="M11.6106 2.98169L11.6106 7.00513L11.6005 6.97437L11.6005 11.0591C11.6013 11.1052 11.5969 11.1511 11.5874 11.1958C11.5764 11.2341 11.5615 11.2715 11.5431 11.3071C11.4969 11.3965 11.4293 11.4727 11.3463 11.5288C11.2231 11.6106 11.0769 11.6501 10.9296 11.6411L9.63855 11.6411C9.37354 11.7048 9.13733 11.8557 8.96765 12.0701C8.87024 12.1938 8.79822 12.3357 8.75562 12.4875C8.71301 12.6394 8.70093 12.7983 8.71973 12.9551C8.73865 13.1116 8.78833 13.2629 8.86572 13.4004C8.94324 13.5376 9.047 13.6582 9.17102 13.7549C9.36975 13.9153 9.61755 14.0017 9.87244 14L11.5394 14C11.7982 13.9587 12.0488 13.876 12.2815 13.7549C12.5096 13.6406 12.7216 13.4966 12.9117 13.3259C13.2059 13.0823 13.4508 12.7842 13.6334 12.4478C13.78 12.1809 13.8828 11.8933 13.9391 11.5964C13.9835 11.3838 14.0039 11.1658 13.9994 10.9468L13.9994 2.57324C13.9677 2.25342 13.8781 1.94189 13.7351 1.6543C13.5256 1.25391 13.2306 0.905273 12.8711 0.633057C12.3561 0.223389 11.7186 0.000488281 11.0616 0L9.68945 0C9.43445 0.0512695 9.20276 0.183838 9.02869 0.37793C8.93384 0.47876 8.85828 0.595215 8.80481 0.721191C8.74158 0.852295 8.70312 0.995605 8.69324 1.1438C8.68127 1.3855 8.74536 1.62476 8.87622 1.82788C8.98035 2.00488 9.12915 2.15088 9.30774 2.25146C9.48633 2.35181 9.68811 2.40308 9.8927 2.39966L11.0922 2.39966C11.2302 2.42627 11.3557 2.49756 11.4493 2.60254C11.5431 2.70776 11.5997 2.84106 11.6106 2.98169ZM6.32483 8.0874L6.24353 8.16919L4.78992 9.6499C4.69507 9.74561 4.61621 9.85596 4.55615 9.97656C4.45911 10.1665 4.41455 10.3789 4.42688 10.5918C4.43933 10.8047 4.50818 11.0105 4.62646 11.1875C4.74463 11.3647 4.90796 11.5068 5.09937 11.5991C5.26196 11.6775 5.43982 11.7175 5.61926 11.7168C5.65454 11.717 5.68982 11.7156 5.7251 11.7126C6.03052 11.6924 6.31714 11.5574 6.52808 11.3347L8.39844 9.43555L10.1875 7.67896C10.2666 7.59863 10.3319 7.50537 10.3806 7.40332C10.4767 7.21338 10.5189 7.00049 10.5027 6.78809C10.4866 6.57544 10.4127 6.37158 10.2892 6.19849C10.1469 6.0249 9.99438 5.87158 9.84192 5.70825L6.35535 2.24658C6.22144 2.11987 6.05908 2.02783 5.88208 1.97803C5.70496 1.92822 5.51868 1.92236 5.33875 1.96069C5.05652 2.00195 4.80127 2.1521 4.6272 2.37939C4.4624 2.57031 4.36584 2.81104 4.35278 3.06348C4.33386 3.25293 4.35986 3.44434 4.42871 3.62183C4.49768 3.79932 4.60754 3.95801 4.74927 4.08472L6.33496 5.67749L1.03906 5.67749C0.745972 5.73291 0.482544 5.89233 0.296997 6.12695C0.17627 6.26465 0.0887451 6.42822 0.0411377 6.60522C-0.00646973 6.78247 -0.0128174 6.96802 0.0224609 7.14795C0.081665 7.39722 0.221069 7.61963 0.418945 7.78125C0.540649 7.89282 0.684082 7.97534 0.838379 8.02466C0.966919 8.06958 1.10364 8.09155 1.24231 8.0874L6.32483 8.0874Z" fill="#FFFFFF" fill-opacity="1.000000" fill-rule="evenodd"/>
	</g>
</svg>
