<svg width="111.000000" height="24.000000" viewBox="0 0 111 24" fill="none" xmlns="http://www.w3.org/2000/svg" xmlns:xlink="http://www.w3.org/1999/xlink">
	<desc>
			Created with Pixso.
	</desc>
	<defs/>
	<path id="logo" d="M14.3225 0C19.2139 0 18.8738 6.35291 13.8723 8.0614C18.6038 11.2532 15.2029 20.2865 7.99072 20.2865C-0.69165 20.2865 -2.20215 10.5985 2.98926 7.24292L3.9895 8.52173L3.85962 8.58313C2.73608 9.42029 1.98389 10.6794 1.76807 12.0837C1.55249 13.488 1.89087 14.9225 2.70923 16.0717C3.07007 15.6228 3.38843 15.1398 3.65942 14.6292L10.2615 2.94629C10.6326 2.13892 11.2017 1.44336 11.9133 0.927124C12.6248 0.410889 13.4548 0.0915527 14.3225 0ZM109.85 13.5754L110.02 13.3811C110.241 13.4502 110.445 13.5699 110.615 13.7312C110.784 13.8925 110.916 14.0911 111 14.312C108.99 16.6957 106.649 18.8746 103.088 18.9463L102.948 18.9463C102.338 18.9708 101.739 18.7811 101.249 18.4089C100.76 18.0367 100.41 17.5043 100.257 16.9003L101.647 16.2251C101.732 16.39 101.86 16.5282 102.016 16.6245C102.172 16.7208 102.35 16.7717 102.533 16.7717C102.715 16.7717 102.894 16.7208 103.05 16.6245C103.206 16.5282 103.333 16.39 103.418 16.2251L107.129 9.65735C107.769 8.52173 106.019 7.16113 103.358 10.936L96.0156 24L93.5449 24L98.0164 16.0717C97.1594 16.4772 96.2295 16.6965 95.2856 16.7161L94.7454 16.7161C92.0847 20.1534 87.7434 19.5294 87.7434 16.3274C86.2229 17.8209 84.6526 18.9156 83.2222 18.9156C81.2415 18.9156 80.5413 17.1969 81.5417 15.3452L84.7324 9.61633C85.8027 7.75452 84.1223 7.16113 80.3914 11.9795L76.6501 18.6598L74.1694 18.6598L75.0098 17.156C73.8906 18.043 72.5747 18.6333 71.1787 18.8746L70.4285 18.8746C69.821 18.8949 69.2249 18.7035 68.7378 18.3318C68.2507 17.96 67.9016 17.4299 67.7478 16.8286L69.2781 16.0103C69.3662 16.2605 69.522 16.48 69.7275 16.6429C69.9331 16.806 70.1797 16.9059 70.4385 16.9309C72.769 16.9309 72.219 12.2455 73.2192 9.63684C72.3491 10.8134 71.1187 12.5831 69.7283 14.22C67.6877 16.6343 65.3171 18.8542 63.3264 18.8542C61.3359 18.8542 60.6458 17.1458 61.646 15.2839L64.2468 10.67C64.373 10.4482 64.4272 10.1913 64.4021 9.93579C64.377 9.68042 64.2737 9.4397 64.1067 9.24805L63.7766 8.83887C61.8159 11.5601 60.8958 12.8184 59.7153 14.22C57.6848 16.6343 54.9241 18.8542 52.1333 18.8542C49.9626 18.8542 48.6724 17.4731 48.8022 15.6624C47.8105 16.2644 46.6926 16.6152 45.5415 16.6854C45.3616 16.6957 45.1812 16.6957 45.0012 16.6854C44.5259 17.3746 43.9033 17.9438 43.1804 18.3499C42.4575 18.7559 41.6538 18.9878 40.8301 19.0281L40.53 19.0281C39.8464 19.012 39.1968 18.7201 38.7227 18.2161C38.2485 17.7122 37.9885 17.0369 37.9993 16.3376C36.4888 17.8209 34.9185 18.9156 33.488 18.9156C31.4973 18.9156 30.8071 17.2072 31.8076 15.3452L34.3782 10.7723C34.5044 10.5505 34.5588 10.2936 34.5337 10.0382C34.5085 9.78271 34.405 9.54199 34.2383 9.35034L33.9182 8.94116C31.9175 11.6215 31.0774 12.8798 29.917 14.2814C27.8765 16.6957 25.5156 18.9156 23.5151 18.9156C23.021 18.983 22.521 18.8492 22.1223 18.5431C21.7239 18.2368 21.459 17.7828 21.3845 17.2788C20.4514 18.1827 19.2593 18.7565 17.9836 18.9156C15.9929 18.9156 15.3027 17.2072 16.3032 15.3452L19.7441 9.20715C20.1702 8.41003 20.78 7.73145 21.521 7.23047C22.262 6.72949 23.1113 6.42114 23.9954 6.33252C24.6699 6.34058 25.3142 6.62183 25.7866 7.11462C26.259 7.6073 26.5212 8.27148 26.5161 8.96167L27.9763 8.96167L23.9753 16.0205C23.405 17.0026 23.7151 17.3914 24.2554 17.3914C25.3457 17.3914 27.0662 15.6726 28.8867 13.5754L29.0566 13.3811C30.6572 11.4475 32.1177 9.3197 33.208 7.75452L32.9978 7.46802C31.9976 6.30176 32.1577 4.87976 33.5481 3.60107L34.8083 5.0332C34.707 5.11914 34.6233 5.22461 34.562 5.34363C34.5005 5.46265 34.4629 5.5929 34.4507 5.72693C34.4387 5.86084 34.4526 5.99597 34.4917 6.12451C34.5305 6.25293 34.594 6.37231 34.6782 6.47571L36.0586 8.18408C36.5249 8.60974 36.8191 9.19788 36.8838 9.83362C36.9485 10.4692 36.7793 11.1067 36.4087 11.6215L33.958 16.0205C33.3879 17.0026 33.698 17.3914 34.2383 17.3914C35.3286 17.3914 37.0491 15.6726 38.8696 13.5754L38.9995 13.422L45.8215 1.23779L48.3223 1.23779L45.2014 6.77234C45.667 6.42542 46.2256 6.23254 46.8018 6.21997L47.0017 6.21997C47.2783 6.23169 47.5496 6.29944 47.8 6.41931C48.0508 6.53906 48.2756 6.70862 48.4617 6.91797C48.6477 7.12732 48.7915 7.37231 48.8843 7.63879C48.9771 7.9054 49.0171 8.18811 49.0024 8.47058C48.9456 9.49146 48.6357 10.4807 48.1021 11.3452L45.7915 15.4374C46.5015 15.4022 47.197 15.219 47.8352 14.8988C48.4734 14.5786 49.0408 14.1283 49.5024 13.5754L49.6526 13.4015L52.0032 9.20715C52.4326 8.33569 53.0879 7.60181 53.8977 7.08582C54.7075 6.5697 55.6404 6.29138 56.5945 6.28137C58.5952 6.28137 59.9155 8.05115 58.5952 10.3734L58.2451 10.9974C56.4045 14.2506 53.4236 14.5677 51.8433 13.8926L51.603 14.3223C50.4729 16.3683 51.373 17.3914 52.8835 17.3402C54.644 17.3402 56.8745 15.6726 58.645 13.5754L58.8152 13.3811C60.4155 11.4475 61.876 9.3197 62.9663 7.75452L62.7563 7.46802C61.876 6.30176 62.0061 4.87976 63.3965 3.60107L64.6567 5.0332C64.5557 5.11914 64.4719 5.22461 64.4104 5.34363C64.3491 5.46265 64.3113 5.5929 64.2993 5.72693C64.2871 5.86084 64.301 5.99597 64.3401 6.12451C64.3792 6.25293 64.4426 6.37231 64.5269 6.47571L65.8672 8.18408C66.313 8.60767 66.5933 9.1825 66.656 9.80164C66.7185 10.4208 66.5591 11.042 66.2073 11.5499L63.7466 15.9489C63.1765 16.9309 63.4866 17.3197 64.0266 17.3197C65.1169 17.3197 66.8374 15.6522 68.6079 13.5549L68.7781 13.3606C70.9985 10.7008 73.2292 7.41687 74.2295 5.99487L76.0801 7.01794C74.5696 10.2404 74.7297 13.9028 73.9495 16.2966C75.0632 15.5294 76.0723 14.6144 76.9504 13.5754L77.0903 13.4117L84.0125 1.26855L86.373 1.26855L82.4519 8.24548C82.8679 7.70862 83.385 7.2627 83.9727 6.93408C84.5603 6.60535 85.2065 6.40088 85.8728 6.33252C87.1934 6.33252 88.2534 7.70337 87.1934 9.61633L83.6523 16.0205C83.082 17.0026 83.3921 17.3914 83.9324 17.3914C85.0127 17.3914 86.7432 15.6726 88.5137 13.5243L88.6436 13.3708L89.644 11.6112L90.8442 9.46289C92.2646 6.95654 93.7251 6.17908 95.6157 6.17908C97.9363 6.17908 99.3066 8.66492 97.8162 11.2941L95.4956 15.3862C96.2046 15.3458 96.8984 15.1603 97.5359 14.8403C98.1733 14.5205 98.7415 14.073 99.2065 13.5243L99.3767 13.33L103.218 6.5166L105.648 6.5166L105.148 7.38623C107.649 5.14575 111.36 6.47571 109.069 10.4552L106.359 15.2123C106.069 15.7443 105.759 16.4399 105.358 17.0946C107.117 16.319 108.66 15.1099 109.85 13.5754ZM12.4519 3.38623L10.4514 6.8645C12.9922 6.8645 14.3525 6.30176 15.3027 4.40918C16.5332 2.08691 14.2424 0.225098 12.4519 3.38623ZM94.0151 13.5448L94.1553 13.5448L95.9658 10.3734C97.446 7.76465 95.0854 6.578 93.365 9.57544L92.1846 11.6215L90.3142 14.9258C88.8137 17.5243 91.6545 17.9335 92.8149 15.8875C92.6663 15.6295 92.5837 15.3375 92.5747 15.0383C92.5747 14.6458 92.7258 14.2689 92.9954 13.9894C93.2649 13.7098 93.6313 13.5502 94.0151 13.5448ZM42.9529 13.7909C43.1267 14.1858 43.3901 14.5327 43.7209 14.8031L46.2417 10.4246C46.5251 9.97815 46.6875 9.46265 46.7117 8.93091C46.7166 8.90393 46.7166 8.8761 46.7117 8.84912C46.7197 8.72107 46.7029 8.59277 46.6616 8.47168C46.6206 8.35046 46.5562 8.23901 46.4724 8.14368C46.3884 8.04834 46.2869 7.97107 46.1733 7.91663C46.0598 7.86206 45.9368 7.8313 45.8115 7.82605C44.4211 7.82605 42.7207 10.7417 42.7207 12.532C42.6995 12.9645 42.7791 13.396 42.9529 13.7909ZM56.5845 10.3837C58.0549 7.80566 55.5542 7.36572 54.1338 9.85168L52.5535 12.6752C53.4736 13.0537 55.0542 13.0537 56.2344 11.0077L56.5845 10.3837ZM18.6638 17.3402C19.6641 17.3402 21.1746 16.2046 22.6648 13.8108L24.5454 10.3632C25.7458 8.09204 23.125 7.48853 21.8047 9.83118L18.3838 15.9694C17.8135 16.9514 18.1235 17.3402 18.6638 17.3402ZM4.26978 17.4834C5.35547 18.0844 6.57642 18.3842 7.81079 18.3529C13.7625 18.3529 16.053 9.68799 10.2915 8.45007L9.6311 8.37854L5.5 15.6931C5.14062 16.3247 4.729 16.9236 4.26978 17.4834ZM40.7915 17.1985C40.9072 17.2357 41.0293 17.249 41.1501 17.2378C41.5291 17.2163 41.897 17.0984 42.22 16.8947C42.5432 16.691 42.8115 16.4082 43.0007 16.0717C42.5718 15.7716 42.2112 15.3806 41.9436 14.925C41.676 14.4696 41.5078 13.9603 41.4502 13.4323L40.5801 14.9769C40.3384 15.3693 40.1909 15.8145 40.1499 16.2762C40.145 16.3102 40.145 16.3446 40.1499 16.3785C40.1599 16.5023 40.1938 16.6228 40.2498 16.7332C40.3054 16.8434 40.3821 16.9413 40.4751 17.0212C40.5681 17.1011 40.6755 17.1614 40.7915 17.1985Z" fill="#FFFFFF" fill-opacity="1.000000" fill-rule="evenodd"/>
</svg>
