<svg width="114.501343" height="29.531006" viewBox="0 0 114.501 29.531" fill="none" xmlns="http://www.w3.org/2000/svg" xmlns:xlink="http://www.w3.org/1999/xlink">
	<desc>
			Created with Pixso.
	</desc>
	<defs/>
	<path id="Vector" d="M43.3761 0L44.7921 0C50.245 0.283691 54.5229 1.75269 57.2344 4.78174C59.986 1.74243 64.2639 0.263428 69.7471 0L71.1027 0C83.2639 0.830811 88.8071 9.62427 98.5179 13.3623C100.027 14.0547 101.67 14.4006 103.328 14.3755C105.819 14.1021 107.405 11.5591 107.084 8.72266C106.743 5.68335 103.79 3.03931 100.496 4.49805C100.064 4.70264 99.6672 4.97632 99.3214 5.30859C99.0703 5.5415 98.7892 6.14941 98.1465 5.92651C97.5439 5.41992 98.1465 4.68042 98.4578 4.25488C99.0524 3.18823 99.9524 2.32739 101.04 1.78491C102.128 1.24268 103.352 1.04443 104.553 1.21558C110.207 1.62085 115.268 6.62549 114.405 14.2034C112.477 25.4788 102.254 28.5181 90.1327 29.531L86.1862 29.531C75.6085 29.0952 65.4623 25.1819 57.2947 18.3872C49.0665 25.1646 38.8854 29.074 28.2726 29.531L24.3964 29.531C12.1849 28.447 1.86157 25.4788 0.0639648 13.8689C-0.618896 5.60229 4.26172 1.53979 9.92554 1.12451C11.1367 0.950928 12.3717 1.14771 13.4708 1.68945C14.5699 2.2312 15.4829 3.09302 16.0914 4.16382C16.3726 4.62964 16.8948 5.34912 16.4027 5.90625C15.7902 6.01758 15.4889 5.53149 15.2278 5.28833C14.8606 4.90234 14.4214 4.59351 13.9353 4.37964C13.4492 4.16577 12.926 4.05103 12.3959 4.04224C8.51953 3.90039 6.29016 8.24634 7.83667 11.7517C8.13989 12.4319 8.60962 13.0229 9.20154 13.4695C9.79358 13.9163 10.4885 14.2036 11.2209 14.3047C12.8776 14.3162 14.5175 13.9707 16.0311 13.2915C17.3813 12.769 18.682 12.125 19.9175 11.3667C27.2986 7.05103 33.0728 0.921875 43.3761 0Z" fill="#FFFFFF" fill-opacity="1.000000" fill-rule="nonzero"/>
</svg>
