<svg width="292.389404" height="43.683594" viewBox="0 0 292.389 43.6836" fill="none" xmlns="http://www.w3.org/2000/svg" xmlns:xlink="http://www.w3.org/1999/xlink">
	<desc>
			Created with Pixso.
	</desc>
	<defs/>
	<path id="Vector" d="M20.2853 17.5059C20.2892 18.1814 20.1423 18.8489 19.8555 19.4592C19.5686 20.0696 19.1492 20.6069 18.6283 21.0315C19.1398 21.5105 19.5507 22.0881 19.837 22.7302C20.1234 23.3723 20.2792 24.0657 20.2953 24.7695L20.2953 39.054C20.2798 40.2742 19.7922 41.4402 18.9369 42.303C18.0814 43.166 16.9258 43.6577 15.7161 43.6736L0 43.6736L0 0L15.7061 0C16.9189 0.00537109 18.0806 0.493652 18.9382 1.35889C19.7959 2.22412 20.28 3.396 20.2853 4.61963L20.2853 17.5059ZM12.8038 7.48657L7.42126 7.48657L7.42126 18.0327L12.8038 18.0327L12.8038 7.48657ZM12.8038 25.5193L7.42126 25.5193L7.42126 36.1262L12.8038 36.1262L12.8038 25.5193ZM48.8555 0C50.0684 0.00537109 51.23 0.493652 52.0876 1.35889C52.9453 2.22412 53.4294 3.396 53.4347 4.61963L53.4347 39.064C53.4191 40.2844 52.9316 41.4502 52.0762 42.3132C51.2208 43.1763 50.0651 43.668 48.8555 43.6836L37.7085 43.6836C36.4973 43.6731 35.3386 43.1829 34.4822 42.3188C33.6256 41.4548 33.1398 40.2859 33.1293 39.064L33.1293 4.61963C33.1293 3.39429 33.6118 2.21948 34.4706 1.35303C35.3293 0.486816 36.494 0 37.7085 0L48.8555 0ZM45.9432 7.48657L40.5706 7.48657L40.5706 36.1262L45.9532 36.1262L45.9432 7.48657ZM79.5947 43.6736L76.582 25.5193L73.7401 25.5193L73.7401 43.6736L66.3188 43.6736L66.3188 0L82.0249 0C82.6223 0.00390625 83.2131 0.126709 83.7635 0.36084C84.314 0.595215 84.8132 0.936523 85.2328 1.36572C85.6525 1.79468 85.9843 2.30273 86.2092 2.86108C86.4341 3.41943 86.5479 4.01685 86.5439 4.61963L86.5439 20.9707C86.5425 21.8398 86.2926 22.6902 85.8241 23.4197C85.3557 24.1492 84.6886 24.7271 83.9028 25.0837L86.9958 43.6736L79.5947 43.6736ZM79.1027 7.48657L73.72 7.48657L73.72 18.0327L79.1027 18.0327L79.1027 7.48657ZM114.17 0C115.383 0.00537109 116.545 0.493652 117.402 1.35889C118.26 2.22412 118.744 3.396 118.749 4.61963L118.749 39.064C118.734 40.2844 118.246 41.4502 117.391 42.3132C116.535 43.1763 115.38 43.668 114.17 43.6836L103.043 43.6836C101.832 43.6731 100.673 43.1829 99.8169 42.3188C98.9603 41.4548 98.4745 40.2859 98.464 39.064L98.464 4.61963C98.4639 3.40479 98.9381 2.23901 99.7839 1.37427C100.63 0.509766 101.779 0.0158691 102.983 0L114.17 0ZM111.258 7.48657L105.875 7.48657L105.875 36.1262L111.258 36.1262L111.258 7.48657ZM147.319 0C148.532 0.00537109 149.694 0.493652 150.552 1.35889C151.409 2.22412 151.893 3.396 151.899 4.61963L151.899 39.064C151.883 40.2844 151.396 41.4502 150.54 42.3132C149.685 43.1763 148.529 43.668 147.319 43.6836L131.613 43.6836L131.613 0L147.319 0ZM144.417 7.48657L139.035 7.48657L139.035 36.1262L144.417 36.1262L144.417 7.48657ZM165.134 0L172.556 0L172.556 43.6736L165.134 43.6736L165.134 0ZM205.584 0L205.584 43.6736L198.163 43.6736L192.72 24.5974L192.72 43.6736L185.329 43.6736L185.329 0L192.69 0L198.133 17.9009L198.133 0L205.584 0ZM234.155 18.0327C235.367 18.0381 236.529 18.5264 237.387 19.3916C238.244 20.2568 238.729 21.4287 238.734 22.6523L238.734 39.064C238.718 40.2844 238.231 41.4502 237.375 42.3132C236.52 43.1763 235.364 43.668 234.155 43.6836L223.028 43.6836C221.82 43.6677 220.667 43.1753 219.814 42.3118C218.962 41.4485 218.479 40.2825 218.469 39.064L218.469 30.0781L225.89 28.3357L225.89 36.1362L231.272 36.1362L231.272 25.5193L223.048 25.5193C222.448 25.5205 221.853 25.4026 221.299 25.1724C220.744 24.9419 220.239 24.6035 219.814 24.1763C219.389 23.7493 219.051 23.2419 218.82 22.6831C218.589 22.1245 218.47 21.5251 218.469 20.9199L218.469 4.61963C218.469 3.39795 218.948 2.22607 219.803 1.36011C220.657 0.494385 221.817 0.00537109 223.028 0L234.175 0C235.388 0.00537109 236.549 0.493652 237.407 1.35889C238.265 2.22412 238.749 3.396 238.754 4.61963L238.754 13.4536L231.272 15.2063L231.272 7.48657L225.89 7.48657L225.89 18.0327L234.155 18.0327ZM265.888 21.781L272.817 43.6836L265.336 43.6836L265.275 43.4304L259.712 25.5293L259.029 25.5293L259.029 43.6736L251.608 43.6736L251.608 0L259.029 0L259.029 18.0327L259.642 18.0327L265.336 0L272.877 0L265.888 21.781ZM284.968 0L292.389 0L292.389 43.6736L284.968 43.6736L284.968 0Z" fill="#FFFFFF" fill-opacity="1.000000" fill-rule="nonzero"/>
</svg>
