<svg width="364.964600" height="80.032715" viewBox="0 0 364.965 80.0327" fill="none" xmlns="http://www.w3.org/2000/svg" xmlns:xlink="http://www.w3.org/1999/xlink">
	<desc>
			Created with Pixso.
	</desc>
	<defs/>
	<path id="Vector" d="M121.019 0C128.129 0 127.536 9.11768 120.366 11.5793C127.235 16.2092 122.294 29.1157 111.649 29.1257C99.1469 29.1257 96.9476 15.2163 104.439 10.4043L105.785 12.2175C102.32 14.4666 101.597 19.5928 104.068 23.0271C104.588 22.397 105.049 21.7185 105.443 21.001L115.114 4.22461C116.721 1.38794 119.01 0 121.019 0ZM260.063 19.522L260.305 19.2483C260.61 19.3306 260.895 19.4768 261.141 19.6775C261.386 19.8782 261.587 20.1289 261.73 20.4133C258.808 23.8477 255.414 26.968 250.222 27.0693L250.011 27.0693C249.128 27.1045 248.26 26.8357 247.548 26.3074C246.837 25.7793 246.324 25.0225 246.095 24.1619L248.103 23.1487C248.201 23.4148 248.377 23.6443 248.607 23.8064C248.838 23.9685 249.113 24.0554 249.394 24.0554C249.675 24.0554 249.949 23.9685 250.18 23.8064C250.411 23.6443 250.587 23.4148 250.684 23.1487L256.077 13.717C257.011 12.0859 254.53 10.0698 250.513 15.5505L239.828 34.3027L236.223 34.3027L242.731 22.9158C241.533 23.4934 240.231 23.8174 238.905 23.8679L238.111 23.8679C234.235 28.8015 227.918 27.9102 227.918 23.3108C225.709 25.4485 223.419 27.0288 221.341 27.0288C218.459 27.0288 217.384 24.5669 218.9 21.9026L223.54 13.7981C225.086 11.1133 222.656 10.2219 217.153 17.1919L211.73 26.7249L208.125 26.7249L209.35 24.5771C207.735 25.8059 205.851 26.6257 203.857 26.968L203.757 26.968C203.425 27.0388 203.094 27.0388 202.753 27.0388C201.87 27.074 201.001 26.8054 200.29 26.2771C199.578 25.7488 199.065 24.9922 198.836 24.1313L201.015 22.9563C201.146 23.3135 201.373 23.6265 201.671 23.8594C201.969 24.0923 202.327 24.2356 202.702 24.2732C206.067 24.2732 205.313 17.5566 206.719 13.8081C205.454 15.51 203.646 18.0327 201.638 20.3931C198.685 23.8579 195.211 27.0491 192.329 27.0491C189.447 27.0491 188.372 24.5974 189.888 21.9229L193.664 15.3076C193.841 14.9893 193.916 14.6235 193.878 14.2605C193.841 13.8977 193.692 13.5554 193.453 13.2812L192.971 12.6938C190.079 16.6143 188.784 18.3975 187.067 20.4236C184.054 23.8882 180.037 27.0793 176.02 27.0793C172.867 27.0793 170.989 25.104 171.18 22.5002C169.736 23.3518 168.11 23.8386 166.44 23.9187C166.176 23.939 165.911 23.939 165.646 23.9187C164.957 24.8977 164.057 25.707 163.013 26.2859C161.97 26.8647 160.81 27.1985 159.621 27.2617C157.311 27.2617 155.494 25.8738 155.494 23.4121C153.285 25.5396 150.995 27.1099 148.926 27.1099C146.044 27.1099 144.98 24.6582 146.486 21.9836L150.262 15.3684C150.439 15.05 150.514 14.6843 150.476 14.3213C150.438 13.9585 150.29 13.6162 150.051 13.342L149.569 12.7546C146.677 16.675 145.381 18.4583 143.664 20.4844C140.712 23.949 137.307 27.1401 134.355 27.1401C132.537 27.1401 131.433 26.1677 131.262 24.7798C129.545 26.2083 127.757 27.1401 126.311 27.1401C123.429 27.1401 122.354 24.6885 123.871 22.0142L128.892 13.2812C130.408 10.6475 133.08 9.11768 135.008 9.11768C135.959 9.09717 136.882 9.44629 137.584 10.0933C138.287 10.7402 138.717 11.635 138.784 12.5925L140.792 12.5925L135.018 22.7839C134.194 24.2529 134.636 24.8101 135.429 24.8101C137.016 24.8101 139.517 22.4395 142.098 19.4004L142.339 19.1267C144.648 16.3206 146.787 13.2712 148.364 11.0222L148.052 10.6069C146.777 8.94531 146.968 6.89893 148.976 5.06543L150.834 7.09155L150.694 7.20288C150.554 7.32935 150.441 7.48291 150.362 7.65454C150.283 7.82593 150.238 8.01172 150.232 8.20093C150.225 8.39014 150.256 8.57861 150.324 8.75513C150.391 8.93188 150.493 9.09302 150.623 9.229L152.632 11.6504C153.797 13.0686 154.379 14.3452 153.144 16.5334L149.569 22.8447C148.745 24.3137 149.187 24.8708 149.981 24.8708C151.567 24.8708 154.068 22.5002 156.649 19.4612L156.839 19.2483L166.842 1.80322L170.487 1.80322L165.948 9.7356C166.63 9.23804 167.446 8.95923 168.288 8.9353L168.709 8.9353C169.104 8.95972 169.491 9.0625 169.846 9.23779C170.202 9.41309 170.52 9.65723 170.782 9.9563C171.044 10.2554 171.245 10.6038 171.374 10.9814C171.502 11.3589 171.556 11.7583 171.531 12.157C171.44 13.6311 170.977 15.0576 170.186 16.3003L166.821 22.1558C167.853 22.1045 168.862 21.8416 169.79 21.3835C170.717 20.9255 171.542 20.2817 172.214 19.4915L172.425 19.2483L175.91 13.1699C176.542 11.9329 177.497 10.8938 178.672 10.1653C179.848 9.43677 181.198 9.04639 182.578 9.03662C185.5 9.03662 187.358 11.5388 185.43 14.8618L184.917 15.7634C182.236 20.4336 177.908 20.9302 175.608 19.917L175.267 20.5452C173.62 23.4526 174.926 24.8406 177.125 24.8406C179.635 24.8406 182.929 22.47 185.51 19.4307L185.751 19.1572C188.071 16.3511 190.2 13.3015 191.776 11.0527L191.475 10.6372C190.2 8.97583 190.391 6.92944 192.399 5.0957L194.257 7.12183L194.146 7.21313C194.009 7.34106 193.898 7.49536 193.82 7.66724C193.742 7.83887 193.7 8.02466 193.694 8.21338C193.688 8.4021 193.72 8.59009 193.787 8.76611C193.855 8.94238 193.956 9.10327 194.086 9.23926L196.094 11.6604C197.259 13.0789 197.842 14.3552 196.607 16.5435L193.032 22.855C192.208 24.324 192.65 24.8811 193.443 24.8811C195.03 24.8811 197.531 22.5105 200.111 19.4712L200.352 19.1978C203.576 15.3887 206.81 10.6575 208.286 8.63135L210.967 10.0901C208.768 14.6997 209.009 19.9675 207.874 23.4019C209.461 22.2891 210.896 20.9709 212.142 19.4814L212.343 19.2483L222.255 1.74243L225.83 1.74243L220.126 11.7617C221.953 9.8877 223.6 9.02637 225.147 9.02637C227.145 9.02637 228.621 11.002 227.075 13.7373L221.923 22.855C221.1 24.324 221.542 24.8811 222.335 24.8811C223.922 24.8811 226.422 22.5105 229.003 19.4712L229.194 19.2483L230.66 16.7358L232.417 13.6968C234.476 10.0901 236.605 8.98584 239.356 8.98584C242.721 8.98584 244.719 12.552 242.55 16.3308L239.186 22.1863C240.216 22.1313 241.225 21.8669 242.152 21.4092C243.078 20.9514 243.904 20.3093 244.578 19.522L244.819 19.2483L250.403 9.47217L253.978 9.47217L253.255 10.7183C256.9 7.42578 262.293 9.34058 258.959 15.0542L255.012 21.8823C254.54 22.6421 254.119 23.6553 253.536 24.5872C256.097 23.4746 258.341 21.7332 260.063 19.522ZM118.267 4.92358L115.385 9.91797C119.021 9.84717 121.049 9.04663 122.425 6.44312C124.212 3.04932 120.878 0.38501 118.267 4.92358ZM162.634 19.8313C162.898 20.3992 163.294 20.8945 163.789 21.2744L167.454 14.9631C167.867 14.321 168.103 13.5798 168.137 12.8154C168.142 12.7581 168.142 12.7004 168.137 12.6431C168.138 12.4614 168.104 12.281 168.036 12.1128C167.968 11.9443 167.867 11.7913 167.74 11.6624C167.614 11.5334 167.463 11.4309 167.296 11.3611C167.13 11.2913 166.951 11.2551 166.771 11.2551C164.743 11.2551 162.272 15.4495 162.272 18.0125C162.246 18.6392 162.37 19.2632 162.634 19.8313ZM236.997 19.4712L237.177 19.4712L239.768 14.9429C241.937 11.1943 238.503 9.50269 235.992 13.7981L231.594 21.5076C229.465 25.2559 233.552 25.803 235.239 22.8955L235.239 22.8245C235.022 22.4563 234.904 22.0371 234.898 21.6089C234.898 21.0454 235.118 20.5046 235.511 20.1045C235.904 19.7041 236.438 19.4766 236.997 19.4712ZM182.538 14.9429C184.667 11.2046 180.971 10.6169 178.963 14.1831L176.663 18.2354C178.009 18.7217 180.308 18.7925 182.025 15.8445L182.538 14.9429ZM127.386 24.9316C128.862 24.9316 130.991 23.3005 133.16 19.8665L136.012 14.8921C137.729 11.6401 133.923 10.769 131.995 14.1323L126.974 22.9055C126.15 24.3745 126.592 24.9316 127.386 24.9316ZM106.387 25.0938C107.967 25.9558 109.743 26.3855 111.539 26.3398C120.195 26.3398 123.519 13.8994 115.204 12.1265L114.2 12.0251L108.175 22.5308C107.654 23.436 107.056 24.2937 106.387 25.0938ZM159.118 24.4634C159.379 24.6924 159.718 24.8096 160.063 24.7898L160.053 24.7493C160.615 24.709 161.159 24.5264 161.633 24.2183C162.106 23.9102 162.496 23.4866 162.764 22.9866C162.145 22.562 161.621 22.009 161.23 21.3643C160.839 20.7197 160.588 19.9983 160.495 19.2483L159.29 21.5278C158.935 22.0923 158.721 22.7356 158.667 23.4019C158.662 23.4558 158.662 23.51 158.667 23.564C158.695 23.9116 158.857 24.2344 159.118 24.4634ZM5.73413 68.4229L0 74.2178L5.73413 80.0327L11.4783 74.2178L5.73413 68.4229ZM359.23 68.4331L353.486 74.2178L359.25 80.0327L364.965 74.2278L359.23 68.4331Z" fill="#FFFFFF" fill-opacity="1.000000" fill-rule="evenodd"/>
</svg>
