<svg width="43.000000" height="43.000000" viewBox="0 0 43 43" fill="none" xmlns="http://www.w3.org/2000/svg" xmlns:xlink="http://www.w3.org/1999/xlink">
	<desc>
			Created with Pixso.
	</desc>
	<defs/>
	<rect id="Подложка" width="43.000000" height="43.000000" fill="#000000" fill-opacity="1.000000"/>
	<path id="VK" d="M34.7853 27.4706L34.6931 27.3018C33.9568 26.1851 33.0533 25.181 32.0123 24.3226C31.6177 23.9675 31.2419 23.593 30.8868 23.2004C30.723 23.0532 30.6134 22.858 30.5746 22.6447C30.5359 22.4314 30.5699 22.2115 30.6719 22.0188C31.0199 21.3838 31.4385 20.7877 31.9203 20.2412L32.8309 19.0793C34.4476 16.994 35.1298 15.6699 34.8773 15.1072L34.7853 14.9781C34.674 14.8678 34.5316 14.7917 34.376 14.7596C34.079 14.7 33.7725 14.7 33.4755 14.7596L29.4952 14.7596C29.4056 14.7301 29.3085 14.7301 29.219 14.7596L28.912 14.7596C28.8514 14.7952 28.7992 14.8425 28.7585 14.8987C28.6959 14.9707 28.6443 15.0509 28.605 15.137C28.1842 16.1904 27.6849 17.2126 27.1111 18.1956C26.7632 18.7517 26.446 19.1886 26.1493 19.6554C25.9258 19.9694 25.6759 20.2649 25.4023 20.5392C25.2314 20.7084 25.0504 20.8676 24.86 21.0157C24.7065 21.135 24.5837 21.1846 24.502 21.1648L24.2666 21.1151C24.1331 21.0304 24.0239 20.9143 23.9493 20.7775C23.8582 20.6147 23.8025 20.4357 23.7856 20.2512L23.7856 15.6136C23.8062 15.4089 23.8062 15.2028 23.7856 14.998C23.7535 14.8479 23.7054 14.7015 23.6425 14.561C23.5845 14.4229 23.4845 14.3052 23.356 14.2234C23.1953 14.14 23.0229 14.0798 22.8444 14.0447C22.2183 13.9851 21.5876 13.9851 20.9615 14.0447C19.8363 13.943 18.7013 14.0475 17.6157 14.3525C17.4128 14.4535 17.2321 14.5918 17.0836 14.7596C16.9097 14.9583 16.8892 15.0675 17.012 15.0874C17.2471 15.0983 17.4773 15.1559 17.6886 15.2566C17.8998 15.3574 18.0874 15.4993 18.2399 15.6732L18.3217 15.8322C18.4142 16.0359 18.4828 16.249 18.5264 16.4677C18.5874 16.796 18.6284 17.1277 18.6492 17.4607C18.6901 18.026 18.6901 18.5935 18.6492 19.1588C18.6492 19.6355 18.557 20.0029 18.5161 20.2611C18.4664 20.5005 18.3729 20.7291 18.2399 20.9364C18.1956 21.0438 18.1407 21.1469 18.0762 21.2441L18.0045 21.3137C17.8831 21.3567 17.7551 21.3802 17.6259 21.3832C17.472 21.3413 17.3314 21.2628 17.2167 21.1548C17.0031 21.0005 16.8075 20.824 16.6334 20.6285C16.3853 20.3372 16.1595 20.0284 15.958 19.705C15.6698 19.2455 15.4067 18.7715 15.1702 18.2849L14.9348 17.8977L14.3516 16.7854C14.1138 16.3202 13.902 15.8429 13.7172 15.3555C13.6538 15.1796 13.5359 15.0269 13.3795 14.9186L13.308 14.9186C13.2544 14.8575 13.1924 14.8041 13.1238 14.7596C13.005 14.7159 12.8813 14.6859 12.7554 14.6703L8.91833 14.7001C8.77258 14.6884 8.62585 14.7072 8.48816 14.7551C8.35059 14.8031 8.2251 14.8792 8.12024 14.9781L8.00769 14.9781C7.99744 15.0507 7.99744 15.1241 8.00769 15.1967C8.01917 15.3219 8.04663 15.4453 8.08948 15.564C8.65576 16.8881 9.26965 18.1294 9.93127 19.288C10.5862 20.4696 11.1592 21.423 11.6401 22.1478C12.121 22.8728 12.6633 23.558 13.1544 24.2035C13.6456 24.8489 14.0344 25.266 14.1776 25.4447L14.5563 25.8519L14.9042 26.1896C15.2268 26.4698 15.5687 26.7286 15.9274 26.9641C16.3997 27.2994 16.8916 27.6078 17.4008 27.8876C17.9816 28.1996 18.6003 28.4397 19.2426 28.6027C19.9109 28.8058 20.6094 28.8997 21.3094 28.8806L22.9261 28.8806C23.2053 28.8784 23.4729 28.7716 23.6731 28.5828L23.6731 28.5132C23.7177 28.4349 23.7521 28.3516 23.7754 28.265C23.7856 28.1427 23.7856 28.0198 23.7754 27.8976C23.765 27.5444 23.7959 27.1913 23.8676 26.845C23.9086 26.5996 23.9879 26.3619 24.1029 26.1399C24.1803 25.9906 24.2804 25.8534 24.3997 25.7328L24.6349 25.5342L24.7474 25.5342C24.8881 25.5054 25.0336 25.5092 25.1724 25.5454C25.311 25.5817 25.439 25.6493 25.5457 25.7427C25.8627 25.9709 26.1481 26.2379 26.3949 26.5371C26.6609 26.845 26.9883 27.2024 27.3567 27.5798C27.6656 27.9047 28.0085 28.1975 28.3799 28.4536L28.6664 28.6125C28.8944 28.7417 29.1385 28.8419 29.3929 28.9104C29.6417 28.9979 29.9094 29.0219 30.1705 28.98L33.803 28.8806C34.0867 28.8986 34.3699 28.8401 34.6216 28.7118C34.7018 28.676 34.7738 28.6251 34.8335 28.5621C34.8933 28.499 34.9395 28.425 34.9694 28.3445C35.0101 28.1947 35.0101 28.0374 34.9694 27.8876C34.951 27.7615 34.9166 27.6382 34.8671 27.5201L34.7853 27.4706Z" fill="#FFFFFF" fill-opacity="1.000000" fill-rule="nonzero"/>
</svg>
